<svg width="257" height="250" viewBox="0 0 257 250" fill="none" xmlns="http://www.w3.org/2000/svg">
<path d="M126.47 78.4262C126.153 75.4052 123.447 73.2131 120.426 73.53L71.1963 78.694C68.1753 79.0109 65.9832 81.7168 66.3001 84.7377C66.617 87.7587 69.3229 89.9509 72.3439 89.634L116.104 85.0438L120.694 128.804C121.011 131.825 123.717 134.017 126.738 133.7C129.759 133.383 131.951 130.677 131.634 127.656L126.47 78.4262ZM57 158L61.2736 161.462L125.274 82.4621L121 79L116.726 75.5379L52.7264 154.538L57 158Z" fill="#00FF4C"/>
<path d="M129.6 180.252C130.175 183.234 133.059 185.186 136.042 184.61L184.646 175.233C187.628 174.657 189.579 171.773 189.004 168.791C188.429 165.808 185.544 163.857 182.562 164.432L139.358 172.768L131.023 129.564C130.448 126.582 127.563 124.63 124.581 125.206C121.598 125.781 119.647 128.666 120.222 131.648L129.6 180.252ZM191.971 95L187.416 91.9181L130.445 176.128L135 179.21L139.555 182.292L196.526 98.0819L191.971 95Z" fill="#00FF4C"/>
<path d="M126.5 48C167.474 48 201 82.2998 201 125C201 167.7 167.474 202 126.5 202C85.5264 202 52 167.7 52 125C52 82.2998 85.5264 48 126.5 48Z" stroke="#00FF4D" stroke-width="12"/>
</svg>
